<svg width="62" height="54" viewBox="0 0 62 54" fill="none" xmlns="http://www.w3.org/2000/svg">
<path d="M2 45.75V17.625C2 15.9674 2.67897 14.3777 3.88753 13.2056C5.0961 12.0335 6.73527 11.375 8.44444 11.375H11.4411C12.5018 11.3752 13.5462 11.1214 14.4815 10.6362C15.4168 10.151 16.2142 9.44948 16.8029 8.59375L19.4193 4.78125C20.008 3.92552 20.8054 3.22395 21.7407 2.73878C22.6761 2.25361 23.7204 1.99985 24.7811 2H37.2189C38.2796 1.99985 39.3239 2.25361 40.2593 2.73878C41.1946 3.22395 41.992 3.92552 42.5807 4.78125L45.1971 8.59375C45.7858 9.44948 46.5832 10.151 47.5185 10.6362C48.4538 11.1214 49.4982 11.3752 50.5589 11.375H53.5556C55.2647 11.375 56.9039 12.0335 58.1125 13.2056C59.321 14.3777 60 15.9674 60 17.625V45.75C60 47.4076 59.321 48.9973 58.1125 50.1694C56.9039 51.3415 55.2647 52 53.5556 52H8.44444C6.73527 52 5.0961 51.3415 3.88753 50.1694C2.67897 48.9973 2 47.4076 2 45.75Z" stroke="#8E8E8E" stroke-width="3" stroke-linecap="round" stroke-linejoin="round"/>
<path d="M31 39.5C36.3388 39.5 40.6667 35.3027 40.6667 30.125C40.6667 24.9473 36.3388 20.75 31 20.75C25.6613 20.75 21.3333 24.9473 21.3333 30.125C21.3333 35.3027 25.6613 39.5 31 39.5Z" stroke="#8E8E8E" stroke-width="3" stroke-linecap="round" stroke-linejoin="round"/>
</svg>
