<svg width="91" height="91" viewBox="0 0 91 91" fill="none" xmlns="http://www.w3.org/2000/svg">
<path d="M56.5155 24.7148H56.5609M45.1581 83.7732H15.6289C12.0143 83.7732 8.54771 82.3373 5.9918 79.7814C3.4359 77.2255 2 73.759 2 70.1444V15.6289C2 12.0143 3.4359 8.54771 5.9918 5.9918C8.54771 3.4359 12.0143 2 15.6289 2H70.1444C73.759 2 77.2255 3.4359 79.7814 5.9918C82.3373 8.54771 83.7732 12.0143 83.7732 15.6289V45.1581" stroke="#8E8E8E" stroke-width="4" stroke-linecap="round" stroke-linejoin="round"/>
<path d="M2 61.0584L24.7148 38.3437C28.9306 34.2868 34.1278 34.2868 38.3437 38.3437L56.5155 56.5155" stroke="#8E8E8E" stroke-width="4" stroke-linecap="round" stroke-linejoin="round"/>
<path d="M51.9724 51.9725L56.5154 47.4296C59.4819 44.572 62.9346 43.727 66.1919 44.89M74.6872 61.0584V88.3162M74.6872 88.3162L88.3161 74.6873M74.6872 88.3162L61.0583 74.6873" stroke="#8E8E8E" stroke-width="4" stroke-linecap="round" stroke-linejoin="round"/>
</svg>
