<svg width="22" height="22" viewBox="0 0 22 22" fill="none" xmlns="http://www.w3.org/2000/svg">
<path d="M10.0833 8.25H11.9166V6.41666H10.0833M10.9999 18.3333C6.95742 18.3333 3.66659 15.0425 3.66659 11C3.66659 6.9575 6.95742 3.66666 10.9999 3.66666C15.0424 3.66666 18.3333 6.9575 18.3333 11C18.3333 15.0425 15.0424 18.3333 10.9999 18.3333ZM10.9999 1.83333C9.79613 1.83333 8.60414 2.07043 7.49199 2.5311C6.37984 2.99177 5.36931 3.66698 4.51811 4.51818C2.79902 6.23727 1.83325 8.56884 1.83325 11C1.83325 13.4311 2.79902 15.7627 4.51811 17.4818C5.36931 18.333 6.37984 19.0082 7.49199 19.4689C8.60414 19.9296 9.79613 20.1667 10.9999 20.1667C13.4311 20.1667 15.7626 19.2009 17.4817 17.4818C19.2008 15.7627 20.1666 13.4311 20.1666 11C20.1666 9.79621 19.9295 8.60421 19.4688 7.49206C19.0081 6.37991 18.3329 5.36939 17.4817 4.51818C16.6305 3.66698 15.62 2.99177 14.5079 2.5311C13.3957 2.07043 12.2037 1.83333 10.9999 1.83333ZM10.0833 15.5833H11.9166V10.0833H10.0833V15.5833Z" fill="#4B4B4B"/>
</svg>
