<svg width="42" height="42" viewBox="0 0 42 42" fill="none" xmlns="http://www.w3.org/2000/svg">
<path d="M21 19.25V19.2675M14 19.25V19.2675M28 19.25V19.2675M31.5 7C32.8924 7 34.2277 7.55312 35.2123 8.53769C36.1969 9.52226 36.75 10.8576 36.75 12.25V26.25C36.75 27.6424 36.1969 28.9777 35.2123 29.9623C34.2277 30.9469 32.8924 31.5 31.5 31.5H22.75L14 36.75V31.5H10.5C9.10761 31.5 7.77226 30.9469 6.78769 29.9623C5.80312 28.9777 5.25 27.6424 5.25 26.25V12.25C5.25 10.8576 5.80312 9.52226 6.78769 8.53769C7.77226 7.55312 9.10761 7 10.5 7H31.5Z" stroke="#5F5F5F" stroke-width="3" stroke-linecap="round" stroke-linejoin="round"/>
</svg>
