<svg width="20" height="20" viewBox="0 0 20 20" fill="none" xmlns="http://www.w3.org/2000/svg">
<path d="M6.4462 3.66375L12.21 9.52C12.3364 9.64778 12.4073 9.82026 12.4073 10C12.4073 10.1797 12.3364 10.3522 12.21 10.48L6.44745 16.3363C6.32111 16.4648 6.25031 16.6379 6.25031 16.8181C6.25031 16.9984 6.32111 17.1714 6.44745 17.3C6.50918 17.3633 6.58295 17.4136 6.66442 17.448C6.74589 17.4823 6.83341 17.5 6.92183 17.5C7.01025 17.5 7.09777 17.4823 7.17924 17.448C7.26071 17.4136 7.33448 17.3633 7.3962 17.3L13.1587 11.445C13.5374 11.0593 13.7495 10.5405 13.7495 10C13.7495 9.45953 13.5374 8.94065 13.1587 8.555L7.3962 2.7C7.33446 2.6365 7.26062 2.58602 7.17903 2.55155C7.09744 2.51708 7.00977 2.49932 6.9212 2.49932C6.83264 2.49932 6.74497 2.51708 6.66338 2.55155C6.58179 2.58602 6.50795 2.6365 6.4462 2.7C6.31986 2.82857 6.24906 3.00162 6.24906 3.18188C6.24906 3.36213 6.31986 3.53518 6.4462 3.66375Z" fill="#7E7E7E"/>
</svg>
